<svg width="23" height="23" viewBox="0 0 23 23" fill="none" xmlns="http://www.w3.org/2000/svg">
<path fill-rule="evenodd" clip-rule="evenodd" d="M10.9312 13.1615L11.6383 12.4543L12.3454 13.1615L17.556 18.372C18.1328 18.9489 19.0221 19.0191 19.675 18.5826L9.46943 8.37702L9.0115 7.9191L9.24205 7.31392C9.3785 6.95573 9.45409 6.57283 9.45409 6.17114C9.45409 4.4327 8.04776 3.02637 6.30932 3.02637C4.57088 3.02637 3.16455 4.4327 3.16455 6.17114C3.16455 7.90958 4.57088 9.3159 6.30932 9.3159C6.71573 9.3159 7.09603 9.24231 7.44565 9.10635L8.0538 8.86984L8.5152 9.33125L9.97697 10.793L10.6841 11.5001L9.97697 12.2072L8.5152 13.669L8.05728 14.1269L7.4521 13.8964C7.09391 13.7599 6.71101 13.6843 6.30932 13.6843C4.57088 13.6843 3.16455 15.0907 3.16455 16.8291C3.16455 18.5676 4.57088 19.9739 6.30932 19.9739C8.04776 19.9739 9.45409 18.5676 9.45409 16.8291C9.45409 16.4227 9.3805 16.0424 9.24453 15.6928L9.00803 15.0846L9.46943 14.6232L10.9312 13.1615ZM7.8081 10.0384L8.56276 10.793L9.26987 11.5001L8.56276 12.2072L7.8081 12.9619C7.34181 12.7843 6.83852 12.6843 6.30932 12.6843C4.01859 12.6843 2.16455 14.5384 2.16455 16.8291C2.16455 19.1198 4.01859 20.9739 6.30932 20.9739C8.60004 20.9739 10.4541 19.1198 10.4541 16.8291C10.4541 16.2999 10.3579 15.7966 10.1765 15.3303L10.9312 14.5757L11.6383 13.8686L12.3454 14.5757L16.8489 19.0791C17.8962 20.1264 19.5911 20.1264 20.6384 19.0791C20.9011 18.8164 20.9011 18.3945 20.6384 18.1318L10.1765 7.66991C10.3542 7.20363 10.4541 6.70033 10.4541 6.17114C10.4541 3.88041 8.60004 2.02637 6.30932 2.02637C4.01859 2.02637 2.16455 3.88041 2.16455 6.17114C2.16455 8.46186 4.01859 10.3159 6.30932 10.3159C6.83852 10.3159 7.34181 10.2197 7.8081 10.0384ZM17.556 4.62823L13.8889 8.29533L14.8431 9.24955L19.675 4.41766C19.0221 3.98118 18.1328 4.05137 17.556 4.62823ZM16.8489 3.92112L13.1818 7.58822L12.4747 8.29533L13.1818 9.00243L14.136 9.95666L14.8431 10.6638L15.5502 9.95666L20.6384 4.86849C20.9011 4.60575 20.9011 4.18387 20.6384 3.92112C19.5911 2.87383 17.8962 2.87383 16.8489 3.92112ZM7.85097 6.13277C7.85097 7.00664 7.14255 7.71505 6.26869 7.71505C5.39482 7.71505 4.68641 7.00664 4.68641 6.13277C4.68641 5.2589 5.39482 4.55049 6.26869 4.55049C7.14255 4.55049 7.85097 5.2589 7.85097 6.13277ZM7.90725 16.7352C7.90725 17.6091 7.19884 18.3175 6.32498 18.3175C5.45111 18.3175 4.7427 17.6091 4.7427 16.7352C4.7427 15.8613 5.45111 15.1529 6.32498 15.1529C7.19884 15.1529 7.90725 15.8613 7.90725 16.7352Z" fill="black"/>
</svg>
